<?xml version="1.0" encoding="utf-8"?>
<!-- Generator: Adobe Illustrator 25.0.0, SVG Export Plug-In . SVG Version: 6.00 Build 0)  -->
<svg version="1.1" id="Layer_1" xmlns="http://www.w3.org/2000/svg" xmlns:xlink="http://www.w3.org/1999/xlink" x="0px" y="0px"
	 viewBox="0 0 300 300" style="enable-background:new 0 0 300 300;" xml:space="preserve">
<style type="text/css">
	.st0{fill:#FFFFFF;}
</style>
<g>
	<path class="st0" d="M149.9,5C85,5,32.4,62,32.4,127c0,37.3,0.5,150,0.4,168l0,0l25.9-37.9l23.2,34.6l20.3-36.8l25.6,36.1
		l23.5-35.6l23.6,35.4l22.9-36.4l24.2,36.3l20-39l21.9,37.7c0,0,0-130.4,0-166.6C264,58,214.9,5,149.9,5z M111.2,145
		c-8.9,0-16.1-7.2-16.1-16.1c0-8.9,7.2-16.1,16.1-16.1c8.9,0,16.1,7.2,16.1,16.1C127.2,137.8,120.1,145,111.2,145z M191.5,145
		c-8.9,0-16.1-7.2-16.1-16.1c0-8.9,7.2-16.1,16.1-16.1s16.1,7.2,16.1,16.1C207.6,137.8,200.4,145,191.5,145z"/>
</g>
</svg>
